<?xml version="1.0" standalone="no"?>
<!DOCTYPE svg PUBLIC "-//W3C//DTD SVG 20010904//EN"
 "http://www.w3.org/TR/2001/REC-SVG-20010904/DTD/svg10.dtd">
<svg version="1.0" xmlns="http://www.w3.org/2000/svg"
 width="1200.000000pt" height="750.000000pt" viewBox="0 0 1200.000000 750.000000"
 preserveAspectRatio="xMidYMid meet">
<metadata>
Created by potrace 1.15, written by Peter Selinger 2001-2017
</metadata>
<g transform="translate(0.000000,750.000000) scale(0.100000,-0.100000)"
fill="#000000" stroke="none">
<path d="M0 5822 l0 -1678 223 -38 c383 -65 928 -175 1381 -280 83 -19 153
-33 158 -30 4 3 20 -2 35 -9 15 -8 87 -28 158 -45 106 -26 137 -30 170 -22 50
12 135 13 135 1 0 -4 -17 -15 -37 -23 l-38 -14 125 -33 c69 -18 251 -69 405
-113 154 -44 312 -88 351 -98 39 -9 75 -19 80 -23 5 -3 104 -35 219 -72 238
-75 417 -136 412 -141 -1 -2 -160 44 -352 102 -193 58 -372 108 -400 111 -62
6 750 -271 1045 -357 367 -107 502 -148 508 -155 20 -21 -188 21 -512 102
-151 38 -231 54 -233 47 -4 -13 -111 -10 -213 6 -36 5 -82 12 -103 15 -21 3
-73 12 -115 21 -102 21 -96 20 -185 34 -43 7 -75 15 -73 17 7 8 373 -17 485
-33 58 -8 107 -14 110 -13 13 1 -52 23 -212 70 -123 37 -172 48 -181 40 -7 -6
-15 -9 -17 -7 -2 2 -47 7 -99 11 -52 4 -98 9 -102 11 -3 2 -28 7 -55 9 -26 3
-88 15 -138 27 -49 11 -101 22 -115 23 -14 2 -25 4 -25 5 0 4 -44 11 -73 11
-22 0 -30 3 -26 11 4 7 3 8 -5 4 -16 -10 -51 3 -51 19 0 10 -8 13 -28 9 -17
-3 -42 3 -66 15 -21 11 -43 18 -47 15 -5 -3 -9 0 -9 6 0 6 -4 9 -9 5 -5 -3
-17 2 -25 11 -9 8 -16 11 -16 6 0 -6 -12 -6 -31 1 l-31 12 28 6 c22 5 17 6
-19 6 -40 0 -45 -1 -30 -12 10 -6 84 -53 166 -104 81 -51 147 -95 147 -98 0
-8 -180 91 -285 157 l-99 63 -305 -7 c-168 -4 -304 -5 -301 -3 3 3 100 10 215
17 290 15 336 20 329 31 -3 6 -12 8 -18 6 -7 -3 -19 -1 -27 5 -11 8 -10 9 4 4
10 -3 16 -2 12 3 -3 5 -21 8 -40 7 -21 -2 -32 1 -28 7 4 6 -2 8 -15 5 -12 -4
-20 -2 -16 3 3 5 -3 9 -13 9 -11 0 -25 6 -32 13 -11 10 -13 10 -7 0 10 -18 2
-16 -52 9 -93 43 -114 43 -290 -3 -87 -22 -179 -47 -206 -55 -60 -17 -99 -18
-94 -2 4 10 259 115 298 122 16 3 17 21 1 21 -5 0 -12 3 -16 7 -4 4 -13 4 -21
1 -8 -3 -14 0 -14 6 0 6 -7 8 -17 4 -10 -4 -14 -2 -10 4 10 15 -34 24 -51 11
-10 -9 -12 -8 -10 1 3 13 -11 18 -57 24 -11 1 -27 9 -35 17 -8 9 -12 11 -7 6
11 -16 8 -26 -8 -26 -8 0 -15 7 -15 16 0 10 -6 14 -15 11 -8 -4 -17 -2 -20 3
-9 15 -27 12 -20 -2 4 -7 -1 -4 -9 6 -9 11 -16 16 -16 11 0 -4 -10 0 -21 11
-22 19 -22 19 -10 -4 11 -21 11 -22 -8 -10 -11 6 -17 16 -15 20 5 8 -12 12
-31 8 -5 -1 -17 -3 -26 -5 -9 -2 -22 1 -30 7 -11 8 -10 9 4 4 10 -3 17 0 17 9
0 11 -7 11 -37 3 -26 -7 -38 -7 -41 0 -2 6 -10 8 -18 5 -10 -4 -12 0 -7 13 6
17 5 17 -10 5 -9 -7 -17 -9 -17 -3 0 5 -7 12 -14 15 -11 4 -13 1 -8 -11 5 -15
3 -15 -22 1 -15 10 -30 16 -33 13 -3 -3 -14 -1 -24 5 -14 7 -17 6 -13 -4 4
-10 -2 -14 -20 -12 -31 4 -46 13 -45 28 0 9 2 9 6 0 7 -19 33 -15 32 5 0 10
-3 12 -6 4 -2 -6 -10 -9 -16 -5 -20 12 -38 12 -30 0 4 -7 -1 -6 -11 2 -15 12
-19 13 -26 1 -7 -11 -12 -11 -23 -2 -7 7 -17 9 -20 5 -4 -3 -7 4 -7 17 0 23 0
23 -15 4 -13 -18 -14 -18 -8 5 4 17 3 22 -6 17 -6 -4 -18 -2 -26 4 -8 7 -22 9
-31 6 -9 -4 -23 -1 -30 5 -11 9 -18 8 -30 -2 -15 -12 -16 -11 -11 6 6 18 3 20
-36 18 -29 -1 -46 3 -55 15 -9 12 -15 13 -24 4 -8 -8 -17 -8 -30 -1 -38 21
-58 19 -58 -4 -1 -20 -2 -20 -11 -4 -5 9 -14 17 -19 17 -5 0 -11 -8 -14 -17
-3 -11 -4 -7 -3 7 2 21 -2 25 -22 22 -14 -1 -22 1 -18 5 9 8 -52 35 -63 28 -4
-3 -10 3 -12 13 -4 15 -1 18 18 14 13 -2 21 -8 19 -13 -5 -7 15 -12 93 -23 12
-2 25 1 28 6 3 4 11 5 17 1 7 -4 19 -8 27 -8 8 0 21 -4 28 -8 7 -5 21 -6 31
-2 11 3 22 1 26 -5 3 -5 13 -10 21 -10 8 0 12 4 9 10 -3 6 1 7 9 4 9 -3 16
-10 16 -14 0 -4 9 -10 20 -13 11 -3 20 0 20 6 0 9 2 9 8 1 12 -20 119 -43 107
-24 -3 4 12 4 33 -2 51 -13 138 -22 131 -14 -8 8 -139 41 -364 92 -88 20 -187
43 -220 50 -125 29 -347 74 -365 74 -19 0 -20 -28 -20 -2060 l0 -2060 6000 0
6000 0 0 1158 0 1158 -107 -17 c-145 -23 -399 -47 -558 -53 l-130 -5 100 9
c262 24 605 63 668 76 l27 6 0 2584 0 2584 -6000 0 -6000 0 0 -1678z m358
-392 c1064 -94 2010 -300 3242 -705 556 -183 1174 -373 1484 -456 83 -22 228
-62 321 -89 551 -157 1394 -361 2069 -501 60 -13 104 -25 98 -27 -12 -4 -51 4
-387 77 -670 145 -1700 401 -2150 536 -99 29 -259 76 -355 104 -277 79 -706
213 -1080 336 -399 131 -533 173 -795 249 -900 259 -1772 417 -2670 485 -68 5
-89 9 -55 9 30 1 156 -7 278 -18z m920 -1355 c81 -20 167 -42 192 -50 25 -8
106 -30 180 -50 262 -71 697 -196 830 -240 577 -188 805 -261 975 -310 50 -14
140 -41 200 -60 153 -47 470 -132 795 -215 464 -117 522 -130 574 -135 71 -6
299 -73 255 -74 -9 -1 -70 12 -135 28 -66 17 -189 44 -274 61 -348 71 -707
159 -1110 272 -118 33 -248 69 -288 79 -40 11 -126 37 -190 58 -628 208 -857
282 -916 296 -38 8 -74 20 -80 24 -19 16 -725 229 -780 236 -11 1 -32 7 -46
13 -14 6 -97 30 -185 53 -88 23 -162 44 -164 46 -11 8 30 0 167 -32z m5398
-1690 c279 -55 693 -122 984 -159 146 -19 251 -35 234 -35 -35 -1 -294 30
-499 60 -359 52 -988 169 -909 169 6 0 91 -16 190 -35z m-740 -265 c207 -24
585 -56 829 -70 304 -18 1043 -24 1425 -11 383 12 953 45 1090 63 47 6 162 12
255 13 94 1 141 0 105 -2 -101 -5 -311 -22 -465 -37 -154 -16 -488 -40 -775
-57 -247 -14 -1116 -19 -1360 -8 -431 19 -953 66 -1205 108 -147 25 -107 25
101 1z"/>
</g>
</svg>
